<?xml version="1.0" encoding="utf-8"?>
<!-- Generator: Adobe Illustrator 17.1.0, SVG Export Plug-In . SVG Version: 6.00 Build 0)  -->
<!DOCTYPE svg PUBLIC "-//W3C//DTD SVG 1.1//EN" "http://www.w3.org/Graphics/SVG/1.1/DTD/svg11.dtd">
<svg version="1.1" id="Layer_1" xmlns="http://www.w3.org/2000/svg" xmlns:xlink="http://www.w3.org/1999/xlink" x="0px" y="0px"
	 viewBox="0 0 800.1 368.9" enable-background="new 0 0 800.1 368.9" xml:space="preserve">
<g>
	<path fill="#00AF41" d="M373.8,134.4c-1.9,0.4-3.7,0.5-5.5,0.5c-14,0-22.1-10.9-22.1-23.8c0-10.4,6.1-19.3,20.4-19.3
		c2.1,0,4.3,0.3,6.2,0.6v3.5c-2.2-0.3-4.3-0.6-6.5-0.6c-9.9,0-15.6,6-15.6,15.9c0,10.4,6.2,20.3,17.7,20.3c1.8,0,3.6-0.2,5.3-0.5
		V134.4z"/>
	<path fill="#00AF41" d="M397.4,133.9c-0.3-1.6-0.8-3.1-0.8-4.8h-0.1c-1,1.5-4.3,5.8-9.6,5.8c-5.3,0-9.3-3.8-9.3-9.5
		c0-6.4,5.3-11.1,15.1-11.1c1.2,0,2.4,0.2,3.6,0.3c0-3.1-0.6-7.4-9.1-7.4c-2.1,0-4.2,0.5-6.3,1v-3.8c2.1-0.3,4.2-0.7,6.4-0.7
		c11.6,0,12.8,6.1,12.8,11.1v6.8c0,5.1,0.1,8.9,0.9,12.4H397.4z M396.2,117.7c-1.4-0.3-2.8-0.6-4.2-0.6c-7.2,0-10.4,3.8-10.4,8.1
		c0,3.2,2.3,6.2,6,6.2c4.6,0,8.6-4.2,8.6-9.9V117.7z"/>
	<path fill="#00AF41" d="M409.2,133.9c0.3-3.1,0.6-6.8,0.6-9.6v-21.2c0-3.7-0.6-9.1-1.2-13.3l5.2-0.6c-0.2,3.5-0.3,6.5-0.3,9.8v25.2
		c0,2.8,0.1,5.9,0.6,9.6H409.2z"/>
	<path fill="#00AF41" d="M443.2,134.3c-2,0.3-3.9,0.6-5.9,0.6c-7.4,0-16-4.6-16-17.5c0-5.4,3.2-13.8,12.5-13.8
		c9.1,0,11.9,8.4,11.9,13.5c0,0.5-0.1,1-0.1,1.6h-20.3c0.3,4,1.6,12.8,12.4,12.8c1.8,0,3.7-0.3,5.5-0.6V134.3z M441.6,115.5
		c-0.3-2.7-1.7-8.4-7.8-8.4c-6.2,0-8.4,5.5-8.5,8.4H441.6z"/>
	<path fill="#00AF41" d="M451.9,133.9c0.6-4,0.6-7.4,0.6-9.6v-21.2c0-3.7-0.6-9.1-1.2-13.3l5.2-0.6c-0.2,3.5-0.3,6.5-0.3,9.8v9.2
		h0.1c1-1.4,3.2-4.7,8.8-4.7c7.2,0,13.3,5.8,13.3,16.2c0,9.7-5.9,15.1-12.5,15.1c-5.7,0-8.1-3-10.2-5.2c-0.1,1.7-0.2,2.8-0.5,4.2
		H451.9z M465.3,131.4c5.5,0,9.1-3.5,9.1-11.7c0-6.5-3.2-12.7-9.7-12.7c-6.8,0-8.5,6.1-8.5,12.7C456.2,128,459.9,131.4,465.3,131.4z
		"/>
	<path fill="#00AF41" d="M503.8,133.9c0.3-2.2,0.3-4.7,0.3-8.7v-21.8c0-5.5-0.3-6.8-1.2-10.6h5.8c0.8,0,1.8-0.1,3-0.2
		c1.2-0.1,2.4-0.1,3.4-0.1c5.1,0,12.4,2.8,12.4,10.5c0,6.7-5.7,9.7-9.2,10.9c4.9,8.6,8.5,13.9,13.5,20h-5.7
		c-4-5.2-7.9-12.1-11.7-19.2c-1.3,0.1-2.7,0.2-3.9,0.2c-0.8,0-1.4,0-2.1-0.1v10.4c0,3,0,6.5,0.3,8.7H503.8z M508.5,111.4
		c0.9,0.3,1.8,0.3,2.7,0.3c7.4,0,12.1-3.9,12.1-8.5c0-5.5-5.6-7.2-10.3-7.2c-1.6,0-3.2,0.2-4.4,0.4V111.4z"/>
	<path fill="#00AF41" d="M538.2,133.9c0-2.7,0-4-0.3-6.2l5.7-0.3c-0.2,2.4-0.2,3.9-0.2,6.6H538.2z"/>
	<path fill="#00AF41" d="M588.6,96.7c-2.2-0.5-4.4-1.2-6.6-1.2c-5.8,0-8,2.6-8,5.4c0,3.9,4.2,6.8,8.7,10c4.7,3.5,9.8,7.4,9.8,13.5
		c0,5.9-4.1,10.4-13.2,10.4c-3.1,0-6.1-0.6-9.1-1.2v-4c3,0.6,6.1,1.4,9.1,1.4c6.5,0,9.1-2.9,9.1-6.3c0-4.3-4.3-7.4-8.7-10.6
		c-5-3.6-9.8-7.5-9.8-13.5c0-4.7,3.9-8.9,12-8.9c2.3,0,4.4,0.5,6.6,0.9V96.7z"/>
	<path fill="#00AF41" d="M599.1,133.9c0.5-3.8,0.6-7.4,0.6-9.6v-21.2c0-3.7-0.6-9.1-1.2-13.3l5.2-0.6c-0.2,3.5-0.3,6.5-0.3,9.8v9.6
		h0.1c1-1.7,3.1-5.1,7.9-5.1c8.4,0,10.3,6.8,10.3,12.6v8.1c0,2.8,0.2,6.5,0.6,9.6h-4c-0.3-3.8-0.3-7.4-0.3-9.6v-8.1
		c0-3.9-1.3-9.1-7-9.1c-6.8,0-7.6,7.2-7.6,11v6.2c0,2.8,0.2,5.3,0.6,9.6H599.1z"/>
	<path fill="#00AF41" d="M648.6,133.9c-0.3-1.6-0.8-3.1-0.8-4.8h-0.1c-1,1.5-4.3,5.8-9.6,5.8c-5.3,0-9.3-3.8-9.3-9.5
		c0-6.4,5.3-11.1,15.1-11.1c1.2,0,2.4,0.2,3.6,0.3c0-3.1-0.6-7.4-9.1-7.4c-2.1,0-4.2,0.5-6.3,1v-3.8c2.1-0.3,4.2-0.7,6.4-0.7
		c11.6,0,12.8,6.1,12.8,11.1v6.8c0,5.1,0.1,8.9,0.9,12.4H648.6z M647.4,117.7c-1.4-0.3-2.8-0.6-4.2-0.6c-7.2,0-10.4,3.8-10.4,8.1
		c0,3.2,2.3,6.2,6,6.2c4.6,0,8.6-4.2,8.6-9.9V117.7z"/>
	<path fill="#00AF41" d="M660.4,133.9c0.5-3.8,0.6-6.8,0.6-9.6v-7.7c0-2.7-0.5-8-2.1-12l4-0.4c0.4,1.4,0.6,2.7,0.9,4
		c1.8-2.1,3.6-4.6,7.9-4.6c5.4,0,7.8,4,8.8,5.4c1-1.7,2.9-5.4,8.7-5.4c7.8,0,10.2,6.5,10.2,13v7.7c0,2.8,0.2,6.5,0.6,9.6h-4
		c-0.3-3.8-0.3-6.8-0.3-9.6v-7.7c0-2.9-0.1-9.5-6.8-9.5c-5.5,0-6.6,3.7-6.8,9.5v7.7c0,2.8,0.2,6.5,0.6,9.6h-4
		c-0.3-3.8-0.3-6.8-0.3-9.6v-7.7c0-3.4-0.2-9.5-6.7-9.5c-5.5,0-6.9,5.1-6.9,9.5v7.7c0,2.8,0.2,5.3,0.6,9.6H660.4z"/>
	<path fill="#00AF41" d="M708.9,133.9c0.5-3.8,0.6-7.4,0.6-9.6v-6.2c0-3.7-0.5-9.1-2.1-13.5l4-0.4c0.5,1.6,0.9,3.2,1.2,4.7
		c3.2-5.3,7.4-5.3,10.6-5.3v3.5c-3.5,0.1-9.9,0.5-9.9,8.4v8.8c0,2.8,0.2,5.3,0.6,9.6H708.9z"/>
	<path fill="#00AF41" d="M747.9,134.3c-2,0.3-3.9,0.6-5.9,0.6c-7.4,0-16-4.6-16-17.5c0-5.4,3.2-13.8,12.5-13.8
		c9.1,0,11.9,8.4,11.9,13.5c0,0.5-0.1,1-0.1,1.6H730c0.3,4,1.6,12.8,12.4,12.8c1.8,0,3.7-0.3,5.5-0.6V134.3z M746.3,115.5
		c-0.3-2.7-1.7-8.4-7.8-8.4c-6.2,0-8.4,5.5-8.5,8.4H746.3z"/>
	<path fill="#00AF41" d="M757.6,133.9c0.3-3.1,0.6-6.8,0.6-9.6v-21.2c0-3.7-0.6-9.1-1.2-13.3l5.2-0.6c-0.2,3.5-0.3,6.5-0.3,9.8v25.2
		c0,2.8,0.1,5.9,0.6,9.6H757.6z"/>
	<path fill="#00AF41" d="M772.6,133.9c0.3-3.1,0.6-6.8,0.6-9.6v-21.2c0-3.7-0.6-9.1-1.2-13.3l5.2-0.6c-0.2,3.5-0.3,6.5-0.3,9.8v25.2
		c0,2.8,0.1,5.9,0.6,9.6H772.6z"/>
	<path fill="#FFCE00" d="M382.5,183.7c0.9,3.4,2.9,9.5,6,18.2c3.2,8.7,4.8,13.8,4.8,15.2c0,0.5-0.3,0.9-0.9,1.3
		c-0.6,0.4-1.2,0.6-1.9,0.6c-0.5,0-1-0.1-1.4-0.4c-0.4-0.2-0.7-0.7-1-1.5c-0.3-0.8-0.6-1.6-0.9-2.5l-9.1-30.7l-20.1,2.4
		c-3,7.5-5.5,14.6-7.3,21.3c-1.9,6.7-2.8,10.1-2.9,10.1l0.1,3.2c0,1.5-1,2.3-3,2.3c-0.7,0-1.4-0.2-2-0.7c-0.6-0.5-0.9-1.1-0.9-1.8
		c0-0.7,0.2-1.5,0.6-2.4c1.1-2.6,2.7-7.5,4.9-14.6c2.2-7.2,4.4-13.7,6.8-19.5c2.3-5.9,3.8-10.1,4.6-12.7l4.3-14.4
		c1.3-4.2,1.9-6.7,1.9-7.4c0-0.7,0.2-1.5,0.5-2.3c0.3-0.8,0.8-1.2,1.5-1.2c1.3,0,2.5,0.1,3.5,0.3c1,0.2,1.7,0.8,2,1.9l2.2,7.4
		l3.6,12.7l3.1,11c2.7-0.2,4.5-0.3,5.7-0.3c2.5,0,3.8,1.3,3.8,3.8c0,1-0.6,1.6-1.9,1.6c-0.6,0-1.5-0.1-2.9-0.3
		C384.4,183.8,383.3,183.7,382.5,183.7z M377,179.8l-3.9-13.5c-1.4-4.9-2.7-9.3-4-13.1c-1.2,3.1-2.7,7.7-4.4,13.6
		c-1.8,5.9-3.5,10.9-5.1,15L377,179.8z"/>
	<path fill="#FFCE00" d="M408.4,181c0,3.1,0,5.6-0.1,7.5c-0.1,2-0.2,5.4-0.4,10.3c-0.2,4.9-0.3,7.9-0.3,9c0,0.8,0.1,1.6,0.2,2.5
		c0.2,0.8,0.2,1.4,0.2,1.8c0,0.3,0,0.5,0,0.6c0,0.8-0.1,1.3-0.4,1.6c-0.3,0.3-0.9,0.5-1.9,0.5c-0.9,0-1.7-0.3-2.2-0.9
		c-0.5-0.6-0.7-1.5-0.7-2.9c0-1.8,0.1-4.6,0.2-8.6c0.1-3.9,0.2-7.8,0.4-11.5c0.1-3.7,0.2-6.8,0.2-9.1c0-4,0.1-8.3,0.3-12.9
		c0.2-4.6,0.4-9,0.6-13.3c0.2-4.3,0.3-7.9,0.3-10.7c0-1.1,0.1-1.9,0.4-2.4c0.2-0.5,0.8-0.8,1.8-0.8c0.8,0,1.4,0.1,1.8,0.3
		c0.7,0.4,1,0.9,1,1.7c0,0.8-0.2,3.9-0.5,9.2c-0.3,5.3-0.5,9.6-0.7,12.9C408.5,171.9,408.4,176.9,408.4,181z"/>
	<path fill="#FFCE00" d="M424.5,175.3c1.4,0,2.1,1.3,2.1,3.9l-0.3,19.8c0,2.7,0.2,6.3,0.6,10.6c0.4,4.3,0.6,7.3,0.6,9
		c0,1.9-0.7,2.8-2,2.8c-1.9,0-2.8-0.6-2.8-1.9c0-1.4-0.2-4.4-0.6-9c-0.4-4.6-0.6-8.5-0.6-11.5l0.4-20.3
		C421.8,176.5,422.7,175.3,424.5,175.3z M427.3,145.5c0.7,0,1.5,0.4,2.3,1.2c0.8,0.8,1.2,2.3,1.2,4.4c0,2.1-0.5,3.7-1.6,5
		c-1,1.2-2.4,1.9-4,1.9c-1.5,0-2.3-1.8-2.3-5.3c0-1.8,0.4-3.5,1.2-4.9C425,146.2,426,145.5,427.3,145.5z"/>
	<path fill="#FFCE00" d="M451.3,206.7l10.6-23.6c0.7-3,1.6-4.4,2.8-4.4c1,0,1.7,0.1,2,0.3c0.3,0.2,0.5,1.1,0.5,2.6
		c0,0.9-2.4,6.3-7.2,16.2c-4.8,9.9-7.4,15.7-8,17.3c-0.5,1.6-1,2.4-1.5,2.4c-2.3,0-3.4-0.8-3.4-2.5c0-0.6,0.5-1.7,1.4-3.2
		c0-1.6-2.5-7.5-7.4-17.5c-5-10.1-7.4-16-7.4-17.9c0-1.9,0.5-2.8,1.5-2.8l1.7-0.1c1.1,0,1.8,1.3,2.2,3.9c0.1,1,2,5.6,5.8,13.9
		C448.7,199.8,450.8,204.9,451.3,206.7z"/>
	<path fill="#FFCE00" d="M477.8,190.2c-1.2,2.3-1.8,5.2-1.8,8.6c0,11.2,6,16.8,18.1,16.8c0.6,0,1.7-0.5,3.5-1.6
		c1.8-1.1,3-1.6,3.7-1.6c0.5,0,1,0.4,1.4,1.1c0.4,0.7,0.6,1.3,0.6,1.9c0,1.1-1.2,2.1-3.7,2.7c-2.4,0.7-5.4,1-8.9,1
		c-5.7,0-10.4-2-14-6c-3.6-4-5.5-8.8-5.5-14.6c0-6.6,3-12.9,8.9-18.9c5.9-6,11.4-9,16.4-9c3.8,0,7.1,1.6,9.7,4.8
		c2.7,3.2,4,6.4,4,9.5c0,2.9-1.6,5.1-4.7,6.6c-3.1,1.5-9.4,2.3-18.7,2.3c-3.9,0-6.4-0.4-7.3-1.3C478.6,191.7,478,190.9,477.8,190.2z
		 M479.5,187.7c1.2,0,2.6,0.5,4.3,1.4c1.7,0.9,3,1.4,4,1.4c6.2,0,10.7-0.5,13.5-1.6c2.9-1.1,4.3-2.2,4.3-3.5c0-3-1-5.5-2.9-7.4
		c-1.9-1.9-4.3-2.9-7.1-2.9c-2.4,0-5.4,1.4-9.1,4.3C483,182.1,480.6,184.9,479.5,187.7z"/>
	<path fill="#FFCE00" d="M563,216c-0.8,1.2-1.8,1.8-2.9,1.8c-0.7,0-1.6-0.2-2.6-0.6c-3.2,1-5.6,1.5-7.1,1.5c-0.9,0-1.8-0.2-2.5-0.6
		c-0.8-0.4-1.1-1-1.1-1.6c0-1.5,1.1-2.3,3.2-2.3c1.8,0,4.4-0.6,7.6-1.7l0.7-26.4c0-13.4-0.3-22.6-0.8-27.6c-3.3,1.1-5.8,1.6-7.5,1.6
		c-1,0-1.8-0.4-2.4-1.2c-0.6-0.8-0.9-1.5-0.9-2.1c0-0.9,1.4-1.6,4.1-2c2.7-0.4,4.6-1,5.7-1.6c1.1-0.6,2.3-0.9,3.6-0.9
		c1.4,0,3-0.2,4.8-0.6c1.8-0.4,3.3-0.6,4.4-0.6c2.4,0,3.6,0.5,3.6,1.6c0,2.1-0.8,3.1-2.3,3.1c-0.7,0-1.6,0.1-2.7,0.3
		c-1.1,0.2-2,0.3-2.8,0.4c-0.8,0.1-1.7,0.4-2.8,1c0.3,7.6,0.5,17.2,0.5,28.9l-0.5,25.3c3.5-0.6,6.7-0.9,9.6-0.9
		c1.2,0,1.8,0.6,1.8,1.8c0,1-0.1,1.7-0.4,2c-0.3,0.3-0.8,0.5-1.7,0.5C569.4,215.1,566.6,215.4,563,216z"/>
	<path fill="#FFCE00" d="M586.4,178.5c4-4.8,8.4-7.3,13.3-7.3c3.7,0,7,1.5,10,4.6c3,3.1,4.6,6.9,4.6,11.6c0,2.9-0.2,6.6-0.7,11
		c-0.5,4.5-0.7,8-0.7,10.6c0,2.7-0.2,4.4-0.7,5.1c-0.5,0.7-1.4,1.1-2.7,1.1c-1.1,0-1.6-0.9-1.6-2.8c0-0.6,0.1-1.2,0.2-1.9
		c0.1-0.7,0.2-1.2,0.2-1.5c0-2.7,0.3-6.4,0.8-11.1c0.5-4.7,0.8-8.5,0.8-11.3c0-2.6-1.1-5.1-3.2-7.3c-2.1-2.3-4.4-3.4-6.8-3.4
		c-4.3,0-7.7,2.2-10.1,6.5c-0.2,1.1-0.4,1.9-0.8,2.4c-0.3,0.4-1.1,0.7-2.2,0.7c0.6,9.1,1.1,15.8,1.5,20c0.4,4.2,0.6,7.4,0.6,9.5
		c0,0.7-0.3,1.4-1,2c-0.6,0.6-1.5,1-2.5,1c-0.7,0-1.1-0.4-1.2-1.3c-0.1-0.8-0.2-3.3-0.2-7.4c0-5.5-0.5-11.6-1.4-18.5
		c-0.9-6.9-1.4-11.1-1.4-12.7c0-3.1,1-4.7,2.9-4.7c1.1,0,1.8,0.8,1.9,2.3C586.3,177.2,586.4,178.1,586.4,178.5z"/>
	<path fill="#FFCE00" d="M723.6,154.5c4.5,15.3,7.4,26.9,8.8,34.9c1.4,8,2.5,13.8,3.4,17.3c0.9,3.5,1.3,6.3,1.3,8.2
		c0,1.3-0.3,2.4-0.9,3.5c-0.6,1.1-1.2,1.6-1.8,1.6c-2.1,0-3.2-1.3-3.2-3.9c0-1.5-0.5-6-1.7-13.6c-1.1-7.6-2.6-15.1-4.3-22.5
		c-1.7-7.5-3.7-14.1-5.9-19.8c-8.3,25.7-15,43.7-20.2,54.1c-0.1,0.2-0.3,0.9-0.7,2.1c-0.4,1.2-0.8,2.1-1.4,2.8
		c-0.6,0.7-1.7,1.1-3.5,1.1c-0.7,0-1.4-1.3-2.2-3.9c-4.8-16.4-8.6-27.9-11.4-34.6c-2.8-6.7-6.1-14.8-9.8-24.5
		c0,2.7-1.2,11.2-3.6,25.4c-2.4,14.2-3.6,21.8-3.6,22.8l0.4,8.4c0,0.9-0.8,1.3-2.3,1.3c-1.3,0-2.3-0.4-3.3-1.1
		c-0.9-0.7-1.4-1.7-1.4-3.1c0-0.2,0.3-1.4,0.9-3.7c0.6-2.3,2.1-10.7,4.4-25.3c2.3-14.6,3.5-23.8,3.5-27.7c0-3.9,1-5.9,3-5.9
		c2.6,0,4.1,0.3,4.5,1c0.4,0.7,1.8,4.1,4.1,10.3c2.3,6.2,4.3,11.1,5.9,14.8c4.5,10.3,8.6,22.9,12.5,38c4.6-11.1,8.2-20.1,10.6-27.2
		c2.4-7.1,4.7-13.4,6.8-19.1c2.1-5.7,3.5-10.1,4.2-13.3c0.7-3.2,1.2-5,1.6-5.6c0.4-0.6,1.2-0.8,2.5-0.8c1,0,1.8,0.4,2.5,1.1
		c0.7,0.8,1.1,1.7,1.1,2.9C724.8,151.3,724.4,152.6,723.6,154.5z"/>
	<path fill="#FFCE00" d="M749.7,190.2c-1.2,2.3-1.8,5.2-1.8,8.6c0,11.2,6,16.8,18.1,16.8c0.6,0,1.7-0.5,3.5-1.6
		c1.8-1.1,3-1.6,3.7-1.6c0.5,0,1,0.4,1.4,1.1c0.4,0.7,0.6,1.3,0.6,1.9c0,1.1-1.2,2.1-3.7,2.7c-2.4,0.7-5.4,1-8.9,1
		c-5.7,0-10.4-2-14-6c-3.6-4-5.5-8.8-5.5-14.6c0-6.6,3-12.9,8.9-18.9c5.9-6,11.4-9,16.4-9c3.8,0,7.1,1.6,9.7,4.8
		c2.7,3.2,4,6.4,4,9.5c0,2.9-1.6,5.1-4.7,6.6c-3.1,1.5-9.4,2.3-18.7,2.3c-3.9,0-6.4-0.4-7.3-1.3
		C750.4,191.7,749.9,190.9,749.7,190.2z M751.4,187.7c1.2,0,2.6,0.5,4.3,1.4c1.7,0.9,3,1.4,4,1.4c6.2,0,10.7-0.5,13.5-1.6
		c2.9-1.1,4.3-2.2,4.3-3.5c0-3-1-5.5-2.9-7.4c-1.9-1.9-4.3-2.9-7.1-2.9c-2.4,0-5.4,1.4-9.1,4.3C754.9,182.1,752.5,184.9,751.4,187.7
		z"/>
	<path fill="#00AF41" d="M347.1,271.9c0.5-2.5,0.6-8.5,0.6-12.4v-13.2c0-6.6-0.6-11.4-1.2-15.5h21.1l0.4,3.8c-2.7-0.2-5.4-0.3-8-0.3
		h-8v14.5h7.9c2.4,0,4.8-0.2,7.2-0.3l-0.2,4c-2.3-0.2-4.5-0.3-6.8-0.3H352v7.3c0,4.1,0,9.2,0.6,12.4H347.1z"/>
	<path fill="#00AF41" d="M382.7,249.8c0-8.3,4.4-20,18.1-20c10.5,0,17,9.7,17,20.6c0,10.9-5.8,22.5-17,22.5
		C389,272.9,382.7,261.1,382.7,249.8z M400.7,269.4c6.9,0,12.4-8.3,12.4-19c0-6.4-3.4-17.1-12.4-17.1c-9.6,0-13.5,9-13.5,16.5
		C387.3,257.8,391.7,269.4,400.7,269.4z"/>
	<path fill="#00AF41" d="M461,265.2h-0.1c-1.5,2.5-4.4,7.7-12.2,7.7c-11.5,0-12.2-10.3-12.2-18.5v-13c0-4.6-0.2-6.8-1.2-10.6h5.8
		c-0.3,3.9-0.3,6.1-0.3,10.6v13c0,9.5,1.4,15,8.4,15c9.2,0,11-7.6,11-15v-13c0-4.6-0.2-6.8-1.2-10.6h5.8c-0.3,3.9-0.3,6.1-0.3,10.6
		V256c0,6.5,0.9,14,1.2,15.9h-4L461,265.2z"/>
	<path fill="#00AF41" d="M485.9,271.9c0.6-2.2,0.6-4.7,0.6-8.7v-21.8c0-5.5-0.3-6.8-1.2-10.6h6.4c7.2,10.9,15.3,24.1,21.8,37.5
		l0.1-0.1l-0.6-28.7c-0.1-3,0-6.5-0.6-8.7h5.2c-0.6,2.2-0.6,4.7-0.6,8.7v21.8c0,5.5,0.2,7.5,0.3,10.6l-5.5,1
		c-3.5-7.6-17-30.3-21.8-38l-0.1,0.1l0.6,28.3c0.1,3,0,6.5,0.6,8.7H485.9z"/>
	<path fill="#00AF41" d="M539.6,271.9c0.5-2.5,0.6-7.1,0.6-12.4v-13.2c0-6.6-0.6-11.4-1.2-15.5h4c0.9,0,1.7-0.1,2.7-0.2
		c0.9-0.1,1.8-0.1,2.5-0.1c10.1,0,22.2,4.7,22.2,22.2c0,17.3-11.5,19.5-20.7,19.5c-1,0-2.1-0.1-3.1-0.2c-1-0.1-2.1-0.1-3-0.1H539.6z
		 M544.5,268.4c1.6,0.1,3.6,0.3,5.2,0.3c11,0,16-5.8,16-16c0-12.2-6.7-18.7-17.7-18.7c-1.2,0-2.6,0.1-3.5,0.3V268.4z"/>
	<path fill="#00AF41" d="M583.5,271.9c0.9-2.5,3.2-8.7,5.5-15.5l2.8-8.4c2.2-6.6,4.3-12.7,4.6-16.3l7-1.9c1.2,4.4,2.7,10.2,4.8,16.3
		l3.1,9.1c2.1,6.3,4.6,12.3,6.7,16.7h-5.5l-4.7-14.4h-15.3c-1.2,4.7-2.5,9.8-3.5,14.4H583.5z M606.7,254.3
		c-2.4-6.9-4.5-13.6-6.4-20.6h-0.1c-2.1,6.9-4.4,13.7-6.7,20.6H606.7z"/>
	<path fill="#00AF41" d="M634.4,271.9c0.3-2.2,0.3-4.7,0.3-8.7v-29h-4.5c-2.8,0-5.1,0.3-7.9,0.6l0.5-4h18.4c3.5,0,6.8,0,10.1-0.6
		l-0.5,4h-11.8v29c0,3,0,6.5,0.3,8.7H634.4z"/>
	<path fill="#00AF41" d="M668,271.9c0.3-2.2,0.3-4.7,0.3-8.7v-21.8c0-5.5-0.3-6.8-1.2-10.6h5.8c-0.3,2.9-0.3,6.1-0.3,10.6v21.8
		c0,3,0,6.5,0.3,8.7H668z"/>
	<path fill="#00AF41" d="M691.6,249.8c0-8.3,4.4-20,18.1-20c10.5,0,17,9.7,17,20.6c0,10.9-5.8,22.5-17,22.5
		C697.9,272.9,691.6,261.1,691.6,249.8z M709.7,269.4c6.9,0,12.4-8.3,12.4-19c0-6.4-3.4-17.1-12.4-17.1c-9.6,0-13.5,9-13.5,16.5
		C696.3,257.8,700.7,269.4,709.7,269.4z"/>
	<path fill="#00AF41" d="M745.4,271.9c0.6-2.2,0.6-4.7,0.6-8.7v-21.8c0-5.5-0.3-6.8-1.2-10.6h6.4c7.2,10.9,15.3,24.1,21.8,37.5
		l0.1-0.1l-0.6-28.7c-0.1-3,0-6.5-0.6-8.7h5.2c-0.6,2.2-0.6,4.7-0.6,8.7v21.8c0,5.5,0.2,7.5,0.3,10.6l-5.5,1
		c-3.5-7.6-17-30.3-21.8-38l-0.1,0.1l0.6,28.3c0.1,3,0,6.5,0.6,8.7H745.4z"/>
</g>
<g>
	<path fill="#FFCE00" d="M272.6,111c-1.2-8.9-11.3-14.8-18.1-19.2C242.3,84,228.9,77.2,215.4,72c-19-7.4-41.2-12.4-61.7-11.5
		c-7.5,0.3-17.3,1.3-21.7,6.3c-30.2,36.9,85.2,73.3,109.4,73.5C258.7,140.4,275.1,130.1,272.6,111z M247.9,136.1
		c-21.5,2.4-45.7-8.6-65.2-17.2c-14.7-6.5-65.9-28.8-45.9-50.8c2.4-1.9,9.3-3.2,13.6-3.6c18.2-1.7,37.1,3,54.3,8.4
		c10.7,3.4,20.8,8.2,30.8,13.4c9.1,4.8,27.7,12.7,31.4,23.4C271.3,122.9,260,134.8,247.9,136.1z"/>
</g>
<g>
	<path fill="#FFE17C" d="M84.6,130.3c0,0,52,19.8,55.3,19.4c3.3-0.5,13.9-64.5,13.9-64.5l33.2,48.3c0,0,18.7-32.5,22.5-36.2
		c3.8-3.8,18.7-20.1,18.4-20.8c-0.2-0.7,1.2,17.2,0,21.3c-1.2,4-1.5,49.8-1.5,49.8l32.4-16.3c0,0,27.6-4.7,29.1-4.7
		c1.4,0-6.1,13.2-8,16.1c-1.9,2.8-9.7,16.1-10.6,17.5c-0.9,1.4-17.1,29.7-17.1,29.7s34.6,19.4,35.9,22.3c1.2,2.8,7.1,10.6,7.1,10.6
		s-21,0.9-24.8,1.4c-3.8,0.5-11.2,1.6-11.2,1.6l-14.9,10.2l6,37.6c0,0,1.2,14.4,1.7,17c0.5,2.6,1.2,5.9,1.2,5.9L212,263.2
		c0,0-6.9,52.2-7.6,55.8c-0.7,3.5-2.4,6.9-2.4,6.9l-16.5-17.5l-13-40.5l-20.8,45l-12.7,13l-11-29l14.2-42.4l-24.7,16.6l-23.9,9.7
		c0,0,8-9.2,11.6-12.5c3.5-3.3,18.8-35.1,18.8-35.1l-34.4-2c0,0-12-5.4-16.5-6.6c-4.5-1.2-10.6-2.6-10.6-2.6l53.4-28.7l-20.3-32.4
		L84.6,130.3z"/>
	<path d="M138.9,326.8c-0.1,0-0.1,0-0.2,0c-0.3-0.1-0.6-0.3-0.7-0.6l-11-29c-0.1-0.2-0.1-0.4,0-0.6l13.3-39.8L118,271.8
		c-0.1,0-0.1,0.1-0.2,0.1l-23.9,9.7c-0.4,0.2-0.9,0-1.1-0.3c-0.3-0.4-0.2-0.8,0.1-1.2c0.3-0.4,8.1-9.3,11.6-12.6
		c2.7-2.5,13.4-23.9,18-33.5l-33-1.9c-0.1,0-0.2,0-0.3-0.1c-0.1-0.1-12-5.4-16.4-6.6c-4.4-1.2-10.5-2.6-10.6-2.6
		c-0.4-0.1-0.7-0.4-0.7-0.8c-0.1-0.4,0.1-0.8,0.5-1l52.5-28.3l-19.8-31.6c0-0.1-0.1-0.1-0.1-0.2l-10.9-30.5c-0.1-0.3,0-0.7,0.2-1
		c0.3-0.3,0.7-0.3,1-0.2c20,7.6,50.8,19,54.6,19.3c2.5-3.2,9.5-40.6,13.3-63.7c0.1-0.4,0.4-0.7,0.7-0.8c0.4-0.1,0.8,0.1,1,0.4
		l32.4,47.1c3.6-6.2,18.5-31.7,21.9-35.1c4.1-4.1,17.3-18.6,18.2-20.3c0.1-0.4,0.5-0.8,0.9-0.8c0.4,0,0.8,0.3,0.9,0.7
		c0,0.1,0,0.3,0,0.5c0,0.4,0.1,1.4,0.1,2.7c0.3,5.4,0.8,15.5-0.1,18.6c-0.9,3.1-1.3,34.3-1.4,48l31-15.6c0.1,0,0.2-0.1,0.3-0.1
		c2.8-0.5,27.8-4.7,29.2-4.7c0.3,0,0.8,0.3,1,0.6c1.1,2.1-8.1,16.8-8.2,17c-1.1,1.6-4.3,6.9-6.8,11.2c-1.9,3.2-3.4,5.7-3.8,6.3
		c-0.7,1.1-10.9,18.9-16.5,28.8c9,5.1,34.2,19.4,35.5,22.2c1.2,2.7,7,10.4,7,10.4c0.2,0.3,0.3,0.7,0.1,1c-0.1,0.3-0.5,0.5-0.8,0.5
		c-0.2,0-21,0.9-24.7,1.4c-3.4,0.4-9.7,1.4-10.9,1.6l-14.2,9.7l5.9,37c0,0.2,1.2,14.5,1.6,17c0.5,2.6,1.2,5.9,1.2,5.9
		c0.1,0.4-0.1,0.8-0.4,1c-0.3,0.2-0.8,0.2-1.1-0.1l-40-32c-1.2,9.1-6.8,51-7.4,54.2c-0.7,3.6-2.4,6.9-2.4,7.1
		c-0.1,0.3-0.4,0.5-0.7,0.5c-0.3,0-0.6-0.1-0.8-0.3L184.8,309c-0.1-0.1-0.2-0.2-0.2-0.4l-12.3-38.2l-19.8,42.8
		c0,0.1-0.1,0.2-0.2,0.3l-12.7,13C139.4,326.7,139.2,326.8,138.9,326.8z M186.3,307.8l15.4,16.3c0.5-1.2,1.3-3.3,1.7-5.4
		c0.7-3.5,7.6-55.2,7.6-55.7c0-0.3,0.3-0.6,0.6-0.8c0.3-0.1,0.7-0.1,0.9,0.1l39.2,31.5c-0.2-1-0.5-2.3-0.7-3.4
		c-0.5-2.6-1.6-16.5-1.7-17.1l-6-37.5c-0.1-0.4,0.1-0.7,0.4-0.9l14.9-10.2c0.1-0.1,0.2-0.1,0.4-0.2c0.1,0,7.5-1.2,11.2-1.7
		c3.2-0.4,17.9-1.1,23.1-1.3c-1.8-2.4-5.2-7.2-6.2-9.4c-1.1-1.8-19.1-12.6-35.5-21.8c-0.2-0.1-0.4-0.3-0.4-0.6
		c-0.1-0.2,0-0.5,0.1-0.7c0.7-1.2,16.1-28.3,17.1-29.8c0.4-0.6,1.9-3.2,3.8-6.2c2.6-4.3,5.7-9.6,6.9-11.3c1.9-2.9,6.8-11.6,7.8-14.5
		c-3.9,0.5-18.1,2.9-27.8,4.6L227,148.3c-0.3,0.1-0.6,0.1-0.9,0c-0.3-0.2-0.4-0.5-0.4-0.8c0-1.9,0.3-46,1.5-50.1
		c0.8-2.8,0.3-13,0.1-17.9c0-0.1,0-0.2,0-0.2c-4.1,5-14.2,15.9-16.9,18.6c-2.9,2.9-15.9,24.9-22.4,36c-0.2,0.3-0.5,0.5-0.8,0.5
		c-0.3,0-0.6-0.1-0.8-0.4l-31.9-46.4c-0.8,5-3,17.4-5.3,29.8c-6.3,32.8-7.9,33-9,33.2c0,0-0.2,0-0.3,0c-4.1,0-43.4-14.8-53.6-18.7
		l10.1,28.4l20.3,32.4c0.1,0.2,0.2,0.5,0.1,0.7c-0.1,0.3-0.2,0.5-0.5,0.6L65,221.6c2.2,0.5,5.5,1.3,8.2,2c4.3,1.1,15,5.9,16.5,6.6
		l34.2,2c0.3,0,0.6,0.2,0.8,0.5c0.2,0.3,0.2,0.6,0,0.9c-0.6,1.3-15.4,32-19,35.3c-2.2,2.1-6.2,6.5-8.9,9.4l20.1-8.1l24.6-16.6
		c0.3-0.2,0.8-0.2,1.1,0c0.3,0.2,0.5,0.7,0.3,1.1L129,296.8l10.3,27.3l11.6-11.9l20.7-44.9c0.2-0.4,0.5-0.6,0.9-0.5
		c0.4,0,0.7,0.3,0.8,0.7L186.3,307.8z"/>
</g>
<g>
	<path fill="#FFCE00" d="M180.5,15l23.8,121.2c0,0,22.5-22.8,33.3-27.7c10.8-4.9,39.4-23.6,39.4-23.6l-36.5,76.9c0,0,7-1.1,13.9-1.1
		c6.9,0,27.6-4.9,27.6-4.9s26.6-6.9,29.5-7.9c3-1,43.3-6.9,43.3-6.9l-25.6,25.6c0,0-32.5,20.7-44.3,25.6
		c-11.8,4.9-32.4,19.4-32.4,19.4s11.7,17.3,15.2,21c3.5,3.7,34.6,23.3,40.8,27.6c6.2,4.2,10.8,16.7,10.8,16.7s-26.5-4-36.4-4.9
		c-7.8-0.7-55-18.2-55-18.2l22.6,88.1l-57.8-73.4c0,0-8.1,28.1-7.2,39.9c1,11.8-7.9,47.2-11.8,52.2c-3.9,4.9-22.7-100.3-22.7-100.3
		s-18.6,30.4-24.5,39.3c-5.9,8.9-21.7,29.5-21.7,29.5s-1-25.6,7.9-45.3c8.9-19.7,19.3-39.1,19.3-39.1S91,265,84.1,266
		c-6.9,1-47.2,9.8-47.2,9.8l80.5-60.3c0,0-47.1-8.6-54.9-10.6c-7.9-2-50.2-17.1-50.2-17.1s25.6-13.4,32.5-12.4
		c6.9,1,51.2-8.9,59.1-8.9c7.9,0,22.3-1.1,22.3-1.1s-14.4-31.4-16.4-39.3c-2-7.9-14.8-26.6-20.7-35.4c-5.9-8.9-6.9-29.5-6.9-29.5
		l32.5,23.6l47,53l12.1-54.9L180.5,15z"/>
	<path d="M173.3,361.6c-1.4,0-3.6-0.3-13.8-51c-4.1-20.3-7.9-40.9-9.1-47.8c-4.3,7.1-18.3,29.8-23.2,37.2
		c-5.9,8.8-21.5,29.4-21.7,29.6l-1.6,2.1l-0.1-2.6c0-0.3-0.9-26,8-45.7c6.9-15.3,14.8-30.6,17.9-36.5c-9.2,4.5-39.4,19.3-45.5,20.1
		c-6.8,1-46.8,9.7-47.2,9.8l-4.3,0.9l82.3-61.6c-9.4-1.7-45.9-8.5-52.9-10.2c-7.8-2-48.6-16.5-50.3-17.2l-2-0.7l1.9-1
		c1-0.5,24.1-12.6,32.1-12.6c0.3,0,0.6,0,0.9,0.1c3.7,0.5,19.5-2.3,33.2-4.8c11.4-2.1,22.2-4,25.8-4c6.3,0,17.1-0.7,20.9-1
		c-2.7-6-14.1-31.1-15.9-38.2c-1.8-7.1-13-23.9-19-32.9l-1.5-2.2c-6-9-7-29.2-7-30l-0.1-2l34.2,24.9l45.7,51.6l11.7-53.1l7.5-74.1
		l24.6,125.7c4.9-4.9,22.9-22.3,32.4-26.6c10.6-4.8,39-23.4,39.2-23.6l2.8-1.8l-37.2,78.4c2.5-0.3,7.4-0.9,12.3-0.9
		c6.7,0,27.1-4.8,27.3-4.9c0.2-0.1,26.6-6.9,29.4-7.9c3-1,41.8-6.7,43.5-6.9l2.8-0.4l-27.8,27.7c-1.3,0.8-32.7,20.8-44.4,25.7
		c-10.3,4.3-27.7,16.1-31.5,18.7c2.3,3.4,11.6,16.9,14.6,20.1c2.5,2.6,20.5,14.3,31.3,21.3c4.2,2.8,7.7,5,9.4,6.1
		c6.4,4.3,11,16.7,11.2,17.2l0.6,1.5l-1.6-0.2c-0.3,0-26.6-4-36.4-4.9c-7.1-0.6-45-14.5-53.6-17.7l23.2,90.7L193,270.4
		c-1.7,6.4-7.4,28-6.6,37.8c1,11.8-7.7,47.4-12,52.8C174.1,361.4,173.7,361.6,173.3,361.6z M151.4,257.6l0.4,2.5
		c6.4,35.9,17.7,93.1,21.5,99.3c3.9-6.3,12.2-39.4,11.2-50.9c-1-11.8,6.9-39.1,7.2-40.3l0.5-1.8l56.2,71.3l-21.9-85.5l1.7,0.6
		c0.5,0.2,47.2,17.5,54.8,18.2c8.4,0.7,28.9,3.8,34.8,4.7c-1.4-3.4-5.2-11.6-9.9-14.8c-1.7-1.1-5.1-3.4-9.4-6.1
		c-15.3-9.9-29.2-19-31.6-21.6c-3.5-3.7-14.8-20.4-15.3-21.1l-0.5-0.8l0.8-0.5c0.8-0.6,20.8-14.6,32.6-19.5
		c11.3-4.7,42.2-24.3,44.1-25.5l23.5-23.5c-12.7,1.9-38.1,5.7-40.3,6.4c-3,1-28.5,7.6-29.6,7.9c-0.9,0.2-20.9,5-27.8,5
		c-6.7,0-13.7,1.1-13.7,1.1l-1.8,0.3l35.9-75.5c-7.5,4.8-27.8,17.8-36.7,21.9c-10.5,4.8-32.8,27.3-33.1,27.5l-1.3,1.3L180.8,21.4
		L174.6,83l-12.5,56.9L114,85.6L83.2,63.2c0.4,5.4,2,20.1,6.6,27.1l1.5,2.2c6.5,9.8,17.5,26.1,19.3,33.5
		c1.9,7.7,16.2,38.8,16.3,39.1l0.6,1.2l-1.4,0.1c-0.1,0-14.5,1.1-22.4,1.1c-3.4,0-14.1,1.9-25.4,4c-14.7,2.7-29.8,5.4-33.8,4.8
		c-0.2,0-0.4,0-0.7,0c-6.3,0-23.5,8.4-29.3,11.3c8.6,3.1,41.3,14.7,48,16.4c7.8,1.9,54.4,10.5,54.9,10.6l2.1,0.4l-78.8,59
		c10.6-2.3,37.5-8.1,43.1-8.9c6.7-1,47.1-21.1,47.5-21.3l2.7-1.3l-1.4,2.6c-0.1,0.2-10.5,19.6-19.2,39c-7,15.5-7.8,35-7.8,42.1
		c4.2-5.6,15.3-20.2,20-27.3c5.8-8.7,24.3-38.9,24.5-39.2L151.4,257.6z"/>
</g>
<linearGradient id="SVGID_1_" gradientUnits="userSpaceOnUse" x1="128.8122" y1="107.0675" x2="269.128" y2="107.0675">
	<stop  offset="1.013180e-02" style="stop-color:#FFCE00"/>
	<stop  offset="2.102165e-02" style="stop-color:#FFCF06"/>
	<stop  offset="0.1422" style="stop-color:#FFD941"/>
	<stop  offset="0.2536" style="stop-color:#FFE16F"/>
	<stop  offset="0.3518" style="stop-color:#FFE790"/>
	<stop  offset="0.4331" style="stop-color:#FFEAA5"/>
	<stop  offset="0.4874" style="stop-color:#FFEBAC"/>
	<stop  offset="0.5519" style="stop-color:#FFEBA7"/>
	<stop  offset="0.632" style="stop-color:#FFE898"/>
	<stop  offset="0.7206" style="stop-color:#FFE47E"/>
	<stop  offset="0.8151" style="stop-color:#FFDD5B"/>
	<stop  offset="0.9132" style="stop-color:#FFD62E"/>
	<stop  offset="1" style="stop-color:#FFCE00"/>
</linearGradient>
<path fill="url(#SVGID_1_)" d="M265.6,124.2c-12.2,23.2-54.9,5.2-75.5-2c-9.7-3.4-30.3-12.3-44.1-23.4c-9.1-7.3-16-15.5-13.3-24.4
	c0.6-2.1-5.7,1.6-5.6,5.9c0.7,17,26.5,30.6,40.6,37.3c22.2,10.7,50.7,23.4,75.4,22.8c12-0.3,22.7-4.4,28-16.5
	c0.5-1.1-0.8-1.3-0.8-1.9c0-2.4-1.5-2.1-3.5,1.2L265.6,124.2z"/>
<g>
	<ellipse fill="#FFCE00" cx="184.5" cy="201.1" rx="68.7" ry="67.7"/>
	<path d="M184.5,269.8c-38.4,0-69.7-30.8-69.7-68.7c0-37.9,31.3-68.7,69.7-68.7c38.4,0,69.7,30.8,69.7,68.7
		C254.2,239,222.9,269.8,184.5,269.8z M184.5,134.3c-37.4,0-67.8,30-67.8,66.8c0,36.8,30.4,66.8,67.8,66.8c37.4,0,67.8-30,67.8-66.8
		C252.3,164.3,221.9,134.3,184.5,134.3z"/>
</g>
</svg>
